<mxfile host="65bd71144e">
    <diagram id="Gdkdi3OXVVvYEZQIb-Hg" name="Page-1">
        <mxGraphModel dx="1409" dy="712" grid="1" gridSize="10" guides="1" tooltips="1" connect="1" arrows="1" fold="1" page="1" pageScale="1" pageWidth="850" pageHeight="1100" math="0" shadow="0">
            <root>
                <mxCell id="0"/>
                <mxCell id="1" parent="0"/>
                <mxCell id="5" value="" style="edgeStyle=none;html=1;" parent="1" source="2" target="4" edge="1">
                    <mxGeometry relative="1" as="geometry"/>
                </mxCell>
                <mxCell id="2" value="URL" style="rounded=0;whiteSpace=wrap;html=1;" parent="1" vertex="1">
                    <mxGeometry x="40" y="280" width="100" height="100" as="geometry"/>
                </mxCell>
                <mxCell id="4" value="&lt;span data-teams=&quot;true&quot;&gt;?wsPort={1}&amp;amp;siteId={2}&amp;amp;lang={3}&amp;amp;locTyp={4}&amp;amp;locId={5}&amp;amp;token={6}&lt;/span&gt;" style="rounded=0;whiteSpace=wrap;html=1;" parent="1" vertex="1">
                    <mxGeometry x="-140" y="460" width="460" height="100" as="geometry"/>
                </mxCell>
                <mxCell id="11" value="" style="edgeStyle=none;html=1;" parent="1" source="7" target="10" edge="1">
                    <mxGeometry relative="1" as="geometry"/>
                </mxCell>
                <mxCell id="14" value="" style="edgeStyle=none;html=1;" parent="1" source="7" target="10" edge="1">
                    <mxGeometry relative="1" as="geometry"/>
                </mxCell>
                <mxCell id="16" value="" style="edgeStyle=none;html=1;" parent="1" source="7" target="15" edge="1">
                    <mxGeometry relative="1" as="geometry"/>
                </mxCell>
                <mxCell id="7" value="WS" style="rounded=0;whiteSpace=wrap;html=1;" parent="1" vertex="1">
                    <mxGeometry x="50" y="680" width="120" height="110" as="geometry"/>
                </mxCell>
                <mxCell id="8" value="1°" style="text;html=1;align=center;verticalAlign=middle;whiteSpace=wrap;rounded=0;" parent="1" vertex="1">
                    <mxGeometry x="-20" y="280" width="60" height="30" as="geometry"/>
                </mxCell>
                <mxCell id="9" value="2°" style="text;html=1;align=center;verticalAlign=middle;whiteSpace=wrap;rounded=0;" parent="1" vertex="1">
                    <mxGeometry x="-10" y="680" width="60" height="30" as="geometry"/>
                </mxCell>
                <mxCell id="18" value="" style="edgeStyle=none;html=1;" parent="1" source="10" target="17" edge="1">
                    <mxGeometry relative="1" as="geometry"/>
                </mxCell>
                <mxCell id="10" value="&lt;span style=&quot;color: rgb(255, 255, 255); font-family: &amp;quot;Cascadia Mono&amp;quot;, Consolas, ui-monospace, Menlo, Monaco, monospace; font-size: 14px; text-align: start; white-space: pre; background-color: rgb(41, 41, 41);&quot;&gt;{&lt;/span&gt;&lt;br style=&quot;-webkit-font-smoothing: antialiased; box-sizing: border-box; color: rgb(255, 255, 255); font-family: &amp;quot;Cascadia Mono&amp;quot;, Consolas, ui-monospace, Menlo, Monaco, monospace; font-size: 14px; text-align: start; white-space: pre;&quot;&gt;&lt;span style=&quot;color: rgb(255, 255, 255); font-family: &amp;quot;Cascadia Mono&amp;quot;, Consolas, ui-monospace, Menlo, Monaco, monospace; font-size: 14px; text-align: start; white-space: pre; background-color: rgb(41, 41, 41);&quot;&gt;&amp;nbsp;&amp;nbsp;&quot;Action&quot;: &quot;Idle&quot;&lt;/span&gt;&lt;br style=&quot;-webkit-font-smoothing: antialiased; box-sizing: border-box; color: rgb(255, 255, 255); font-family: &amp;quot;Cascadia Mono&amp;quot;, Consolas, ui-monospace, Menlo, Monaco, monospace; font-size: 14px; text-align: start; white-space: pre;&quot;&gt;&lt;span style=&quot;color: rgb(255, 255, 255); font-family: &amp;quot;Cascadia Mono&amp;quot;, Consolas, ui-monospace, Menlo, Monaco, monospace; font-size: 14px; text-align: start; white-space: pre; background-color: rgb(41, 41, 41);&quot;&gt;}&lt;/span&gt;" style="rounded=0;whiteSpace=wrap;html=1;" parent="1" vertex="1">
                    <mxGeometry x="-120" y="850" width="120" height="110" as="geometry"/>
                </mxCell>
                <mxCell id="20" value="" style="edgeStyle=none;html=1;" parent="1" source="15" target="19" edge="1">
                    <mxGeometry relative="1" as="geometry"/>
                </mxCell>
                <mxCell id="15" value="&lt;span style=&quot;color: rgb(255, 255, 255); font-family: &amp;quot;Cascadia Mono&amp;quot;, Consolas, ui-monospace, Menlo, Monaco, monospace; font-size: 14px; text-align: start; white-space: pre; background-color: rgb(41, 41, 41);&quot;&gt;{&lt;/span&gt;&lt;br style=&quot;-webkit-font-smoothing: antialiased; box-sizing: border-box; color: rgb(255, 255, 255); font-family: &amp;quot;Cascadia Mono&amp;quot;, Consolas, ui-monospace, Menlo, Monaco, monospace; font-size: 14px; text-align: start; white-space: pre;&quot;&gt;&lt;span style=&quot;color: rgb(255, 255, 255); font-family: &amp;quot;Cascadia Mono&amp;quot;, Consolas, ui-monospace, Menlo, Monaco, monospace; font-size: 14px; text-align: start; white-space: pre; background-color: rgb(41, 41, 41);&quot;&gt;&amp;nbsp;&amp;nbsp;&quot;PlayerId&quot;: &quot;409020020100116274513&quot;,&lt;/span&gt;&lt;br style=&quot;-webkit-font-smoothing: antialiased; box-sizing: border-box; color: rgb(255, 255, 255); font-family: &amp;quot;Cascadia Mono&amp;quot;, Consolas, ui-monospace, Menlo, Monaco, monospace; font-size: 14px; text-align: start; white-space: pre;&quot;&gt;&lt;span style=&quot;color: rgb(255, 255, 255); font-family: &amp;quot;Cascadia Mono&amp;quot;, Consolas, ui-monospace, Menlo, Monaco, monospace; font-size: 14px; text-align: start; white-space: pre; background-color: rgb(41, 41, 41);&quot;&gt;&amp;nbsp;&amp;nbsp;&quot;Action&quot;: &quot;Consent&quot;&lt;/span&gt;&lt;br style=&quot;-webkit-font-smoothing: antialiased; box-sizing: border-box; color: rgb(255, 255, 255); font-family: &amp;quot;Cascadia Mono&amp;quot;, Consolas, ui-monospace, Menlo, Monaco, monospace; font-size: 14px; text-align: start; white-space: pre;&quot;&gt;&lt;span style=&quot;color: rgb(255, 255, 255); font-family: &amp;quot;Cascadia Mono&amp;quot;, Consolas, ui-monospace, Menlo, Monaco, monospace; font-size: 14px; text-align: start; white-space: pre; background-color: rgb(41, 41, 41);&quot;&gt;}&lt;/span&gt;" style="rounded=0;whiteSpace=wrap;html=1;" parent="1" vertex="1">
                    <mxGeometry x="240" y="850" width="120" height="110" as="geometry"/>
                </mxCell>
                <mxCell id="17" value="&lt;span style=&quot;color: rgb(0, 0, 0);&quot;&gt;Navigate back to idle&lt;/span&gt;" style="rounded=0;whiteSpace=wrap;html=1;" parent="1" vertex="1">
                    <mxGeometry x="-120" y="1100" width="120" height="110" as="geometry"/>
                </mxCell>
                <mxCell id="19" value="Navigate to consent" style="rounded=0;whiteSpace=wrap;html=1;" parent="1" vertex="1">
                    <mxGeometry x="240" y="1100" width="120" height="110" as="geometry"/>
                </mxCell>
                <mxCell id="22" style="edgeStyle=none;html=1;exitX=0;exitY=0.5;exitDx=0;exitDy=0;entryX=1;entryY=0.5;entryDx=0;entryDy=0;" edge="1" parent="1" source="21" target="7">
                    <mxGeometry relative="1" as="geometry"/>
                </mxCell>
                <mxCell id="21" value="&lt;span style=&quot;color: rgb(255, 255, 255); font-family: &amp;quot;Cascadia Mono&amp;quot;, Consolas, ui-monospace, Menlo, Monaco, monospace; font-size: 14px; text-align: start; white-space: pre; background-color: rgb(41, 41, 41);&quot;&gt;{&lt;/span&gt;&lt;br style=&quot;-webkit-font-smoothing: antialiased; box-sizing: border-box; color: rgb(255, 255, 255); font-family: &amp;quot;Cascadia Mono&amp;quot;, Consolas, ui-monospace, Menlo, Monaco, monospace; font-size: 14px; text-align: start; white-space: pre;&quot;&gt;&lt;span style=&quot;color: rgb(255, 255, 255); font-family: &amp;quot;Cascadia Mono&amp;quot;, Consolas, ui-monospace, Menlo, Monaco, monospace; font-size: 14px; text-align: start; white-space: pre; background-color: rgb(41, 41, 41);&quot;&gt;&amp;nbsp;&amp;nbsp;&quot;Action&quot;: &quot;Consent&quot;,&lt;/span&gt;&lt;br style=&quot;-webkit-font-smoothing: antialiased; box-sizing: border-box; color: rgb(255, 255, 255); font-family: &amp;quot;Cascadia Mono&amp;quot;, Consolas, ui-monospace, Menlo, Monaco, monospace; font-size: 14px; text-align: start; white-space: pre;&quot;&gt;&lt;span style=&quot;color: rgb(255, 255, 255); font-family: &amp;quot;Cascadia Mono&amp;quot;, Consolas, ui-monospace, Menlo, Monaco, monospace; font-size: 14px; text-align: start; white-space: pre; background-color: rgb(41, 41, 41);&quot;&gt;&amp;nbsp;&amp;nbsp;&quot;Status&quot;: true&lt;/span&gt;&lt;br style=&quot;-webkit-font-smoothing: antialiased; box-sizing: border-box; color: rgb(255, 255, 255); font-family: &amp;quot;Cascadia Mono&amp;quot;, Consolas, ui-monospace, Menlo, Monaco, monospace; font-size: 14px; text-align: start; white-space: pre;&quot;&gt;&lt;span style=&quot;color: rgb(255, 255, 255); font-family: &amp;quot;Cascadia Mono&amp;quot;, Consolas, ui-monospace, Menlo, Monaco, monospace; font-size: 14px; text-align: start; white-space: pre; background-color: rgb(41, 41, 41);&quot;&gt;}&lt;/span&gt;" style="rounded=0;whiteSpace=wrap;html=1;" vertex="1" parent="1">
                    <mxGeometry x="350" y="705" width="120" height="60" as="geometry"/>
                </mxCell>
                <mxCell id="26" value="" style="edgeStyle=none;html=1;" edge="1" parent="1" source="24" target="25">
                    <mxGeometry relative="1" as="geometry"/>
                </mxCell>
                <mxCell id="24" value="API" style="rounded=0;whiteSpace=wrap;html=1;" vertex="1" parent="1">
                    <mxGeometry x="60" y="1370" width="120" height="110" as="geometry"/>
                </mxCell>
                <mxCell id="25" value="&lt;div style=&quot;background-color: rgb(31, 31, 31); font-family: Consolas, &amp;quot;Courier New&amp;quot;, monospace; font-size: 14px; line-height: 19px; white-space: pre; color: rgb(204, 204, 204);&quot;&gt;&lt;div style=&quot;color: light-dark(rgb(204, 204, 204), rgb(62, 62, 62));&quot;&gt;&lt;span style=&quot;color: rgb(204, 204, 204);&quot;&gt;&amp;nbsp; &lt;/span&gt;&lt;span style=&quot;color: rgb(156, 220, 254);&quot;&gt;id&lt;/span&gt;&lt;span style=&quot;color: rgb(212, 212, 212);&quot;&gt;:&lt;/span&gt;&lt;span style=&quot;color: rgb(204, 204, 204);&quot;&gt; &lt;/span&gt;&lt;span style=&quot;color: rgb(78, 201, 176);&quot;&gt;string&lt;/span&gt;&lt;span style=&quot;color: rgb(204, 204, 204);&quot;&gt;;&lt;/span&gt;&lt;/div&gt;&lt;div style=&quot;color: light-dark(rgb(204, 204, 204), rgb(62, 62, 62));&quot;&gt;&lt;span style=&quot;color: rgb(204, 204, 204);&quot;&gt;&amp;nbsp; &lt;/span&gt;&lt;span style=&quot;color: rgb(156, 220, 254);&quot;&gt;firstName&lt;/span&gt;&lt;span style=&quot;color: rgb(212, 212, 212);&quot;&gt;:&lt;/span&gt;&lt;span style=&quot;color: rgb(204, 204, 204);&quot;&gt; &lt;/span&gt;&lt;span style=&quot;color: rgb(78, 201, 176);&quot;&gt;string&lt;/span&gt;&lt;span style=&quot;color: rgb(204, 204, 204);&quot;&gt;;&lt;/span&gt;&lt;/div&gt;&lt;div style=&quot;color: light-dark(rgb(204, 204, 204), rgb(62, 62, 62));&quot;&gt;&lt;span style=&quot;color: rgb(204, 204, 204);&quot;&gt;&amp;nbsp; &lt;/span&gt;&lt;span style=&quot;color: rgb(156, 220, 254);&quot;&gt;lastName&lt;/span&gt;&lt;span style=&quot;color: rgb(212, 212, 212);&quot;&gt;:&lt;/span&gt;&lt;span style=&quot;color: rgb(204, 204, 204);&quot;&gt; &lt;/span&gt;&lt;span style=&quot;color: rgb(78, 201, 176);&quot;&gt;string&lt;/span&gt;&lt;span style=&quot;color: rgb(204, 204, 204);&quot;&gt;;&lt;/span&gt;&lt;/div&gt;&lt;div style=&quot;color: light-dark(rgb(204, 204, 204), rgb(62, 62, 62));&quot;&gt;&lt;span style=&quot;color: rgb(204, 204, 204);&quot;&gt;&amp;nbsp; &lt;/span&gt;&lt;span style=&quot;color: rgb(156, 220, 254);&quot;&gt;birthDate&lt;/span&gt;&lt;span style=&quot;color: rgb(212, 212, 212);&quot;&gt;:&lt;/span&gt;&lt;span style=&quot;color: rgb(204, 204, 204);&quot;&gt; &lt;/span&gt;&lt;span style=&quot;color: rgb(78, 201, 176);&quot;&gt;string&lt;/span&gt;&lt;span style=&quot;color: rgb(204, 204, 204);&quot;&gt;;&lt;/span&gt;&lt;/div&gt;&lt;div style=&quot;color: light-dark(rgb(204, 204, 204), rgb(62, 62, 62));&quot;&gt;&lt;span style=&quot;color: rgb(204, 204, 204);&quot;&gt;&amp;nbsp; &lt;/span&gt;&lt;span style=&quot;color: rgb(156, 220, 254);&quot;&gt;photoUrl&lt;/span&gt;&lt;span style=&quot;color: rgb(212, 212, 212);&quot;&gt;:&lt;/span&gt;&lt;span style=&quot;color: rgb(204, 204, 204);&quot;&gt; &lt;/span&gt;&lt;span style=&quot;color: rgb(78, 201, 176);&quot;&gt;string&lt;/span&gt;&lt;span style=&quot;color: rgb(204, 204, 204);&quot;&gt;;&lt;/span&gt;&lt;/div&gt;&lt;div style=&quot;color: light-dark(rgb(204, 204, 204), rgb(62, 62, 62));&quot;&gt;&lt;span style=&quot;color: rgb(204, 204, 204);&quot;&gt;consentID ????&lt;/span&gt;&lt;/div&gt;&lt;/div&gt;" style="rounded=0;whiteSpace=wrap;html=1;" vertex="1" parent="1">
                    <mxGeometry x="40" y="1530" width="170" height="130" as="geometry"/>
                </mxCell>
                <mxCell id="32" style="edgeStyle=none;html=1;exitX=0.5;exitY=1;exitDx=0;exitDy=0;entryX=0.5;entryY=0;entryDx=0;entryDy=0;" edge="1" parent="1" source="31" target="24">
                    <mxGeometry relative="1" as="geometry"/>
                </mxCell>
                <mxCell id="31" value="&lt;div style=&quot;color: rgb(204, 204, 204); background-color: rgb(31, 31, 31); font-family: Consolas, &amp;quot;Courier New&amp;quot;, monospace; font-size: 14px; line-height: 19px; white-space: pre;&quot;&gt;&lt;span style=&quot;color: #ce9178;&quot;&gt;http://localhost:3000/player/&lt;/span&gt;&lt;span style=&quot;color: #569cd6;&quot;&gt;${&lt;/span&gt;&lt;span style=&quot;color: #9cdcfe;&quot;&gt;playerId&lt;/span&gt;&lt;span style=&quot;color: #569cd6;&quot;&gt;}&lt;/span&gt;&lt;/div&gt;" style="rounded=0;whiteSpace=wrap;html=1;" vertex="1" parent="1">
                    <mxGeometry x="60" y="1280" width="120" height="60" as="geometry"/>
                </mxCell>
            </root>
        </mxGraphModel>
    </diagram>
</mxfile>